<mxfile host="app.diagrams.net" modified="2024-06-04T09:08:06.890Z" agent="Mozilla/5.0 (Macintosh; Intel Mac OS X 10_15_7) AppleWebKit/537.36 (KHTML, like Gecko) Chrome/125.0.0.0 Safari/537.36" etag="jbSmY6pF7aVAzbUo-6oO" version="24.4.13" type="device">
  <diagram name="Page-1" id="RQaqPZ8kfdz0JtrlghRP">
    <mxGraphModel dx="823" dy="450" grid="1" gridSize="10" guides="1" tooltips="1" connect="1" arrows="1" fold="1" page="1" pageScale="1" pageWidth="1169" pageHeight="827" math="0" shadow="0">
      <root>
        <mxCell id="0" />
        <mxCell id="1" parent="0" />
        <mxCell id="9WTyi6oTgiWyNrq65EOA-1" value="" style="group" parent="1" vertex="1" connectable="0">
          <mxGeometry x="160" y="80" width="60" height="70" as="geometry" />
        </mxCell>
        <mxCell id="9WTyi6oTgiWyNrq65EOA-2" value="" style="shape=note;whiteSpace=wrap;html=1;backgroundOutline=1;darkOpacity=0.05;rounded=1;size=20;strokeWidth=2;" parent="9WTyi6oTgiWyNrq65EOA-1" vertex="1">
          <mxGeometry x="3.333333333333333" width="53.33333333333333" height="70" as="geometry" />
        </mxCell>
        <mxCell id="9WTyi6oTgiWyNrq65EOA-3" value="&lt;font data-font-src=&quot;https://fonts.googleapis.com/css?family=Maven+Pro&quot; face=&quot;Maven Pro&quot; color=&quot;#ffffff&quot;&gt;&lt;b&gt;&lt;font style=&quot;font-size: 18px;&quot;&gt;YAML&lt;/font&gt;&lt;/b&gt;&lt;/font&gt;" style="rounded=1;whiteSpace=wrap;html=1;strokeWidth=2;fillColor=#000000;" parent="9WTyi6oTgiWyNrq65EOA-1" vertex="1">
          <mxGeometry y="28" width="60" height="28" as="geometry" />
        </mxCell>
        <mxCell id="9WTyi6oTgiWyNrq65EOA-7" value="&lt;font style=&quot;font-size: 10px;&quot;&gt;command line input parameters&lt;/font&gt;" style="rounded=1;whiteSpace=wrap;html=1;" parent="1" vertex="1">
          <mxGeometry x="250" y="90" width="93" height="60" as="geometry" />
        </mxCell>
        <mxCell id="9WTyi6oTgiWyNrq65EOA-66" style="edgeStyle=orthogonalEdgeStyle;rounded=0;orthogonalLoop=1;jettySize=auto;html=1;entryX=0.5;entryY=0;entryDx=0;entryDy=0;" parent="1" source="9WTyi6oTgiWyNrq65EOA-8" target="9WTyi6oTgiWyNrq65EOA-59" edge="1">
          <mxGeometry relative="1" as="geometry" />
        </mxCell>
        <mxCell id="9WTyi6oTgiWyNrq65EOA-67" style="edgeStyle=orthogonalEdgeStyle;rounded=0;orthogonalLoop=1;jettySize=auto;html=1;exitX=1;exitY=0.75;exitDx=0;exitDy=0;entryX=0.5;entryY=0;entryDx=0;entryDy=0;" parent="1" source="9WTyi6oTgiWyNrq65EOA-8" target="9WTyi6oTgiWyNrq65EOA-12" edge="1">
          <mxGeometry relative="1" as="geometry" />
        </mxCell>
        <mxCell id="9WTyi6oTgiWyNrq65EOA-8" value="PREPARE_INPUT" style="rounded=1;whiteSpace=wrap;html=1;fillColor=#f5f5f5;fontColor=#333333;strokeColor=#666666;" parent="1" vertex="1">
          <mxGeometry x="185" y="180" width="120" height="60" as="geometry" />
        </mxCell>
        <mxCell id="9WTyi6oTgiWyNrq65EOA-27" style="edgeStyle=orthogonalEdgeStyle;rounded=0;orthogonalLoop=1;jettySize=auto;html=1;exitX=0.5;exitY=1;exitDx=0;exitDy=0;entryX=0.5;entryY=0;entryDx=0;entryDy=0;" parent="1" edge="1">
          <mxGeometry relative="1" as="geometry">
            <mxPoint x="230" y="330" as="sourcePoint" />
            <mxPoint x="240" y="353.9999999999999" as="targetPoint" />
            <Array as="points">
              <mxPoint x="240" y="330" />
            </Array>
          </mxGeometry>
        </mxCell>
        <mxCell id="9WTyi6oTgiWyNrq65EOA-36" value="" style="edgeStyle=orthogonalEdgeStyle;rounded=0;orthogonalLoop=1;jettySize=auto;html=1;" parent="1" source="9WTyi6oTgiWyNrq65EOA-10" target="9WTyi6oTgiWyNrq65EOA-17" edge="1">
          <mxGeometry relative="1" as="geometry" />
        </mxCell>
        <mxCell id="9WTyi6oTgiWyNrq65EOA-10" value="RAW_ASSEMBLY&lt;div&gt;HIFI&lt;/div&gt;" style="rounded=1;whiteSpace=wrap;html=1;fillColor=#f5f5f5;fontColor=#333333;strokeColor=#666666;" parent="1" vertex="1">
          <mxGeometry x="180" y="270" width="120" height="60" as="geometry" />
        </mxCell>
        <mxCell id="9WTyi6oTgiWyNrq65EOA-33" style="edgeStyle=orthogonalEdgeStyle;rounded=0;orthogonalLoop=1;jettySize=auto;html=1;exitX=0;exitY=0.5;exitDx=0;exitDy=0;entryX=1;entryY=0.5;entryDx=0;entryDy=0;" parent="1" source="9WTyi6oTgiWyNrq65EOA-11" target="9WTyi6oTgiWyNrq65EOA-18" edge="1">
          <mxGeometry relative="1" as="geometry" />
        </mxCell>
        <mxCell id="9WTyi6oTgiWyNrq65EOA-41" value="" style="edgeStyle=orthogonalEdgeStyle;rounded=0;orthogonalLoop=1;jettySize=auto;html=1;" parent="1" source="9WTyi6oTgiWyNrq65EOA-45" target="9WTyi6oTgiWyNrq65EOA-14" edge="1">
          <mxGeometry relative="1" as="geometry" />
        </mxCell>
        <mxCell id="9WTyi6oTgiWyNrq65EOA-47" value="" style="edgeStyle=orthogonalEdgeStyle;rounded=0;orthogonalLoop=1;jettySize=auto;html=1;" parent="1" edge="1">
          <mxGeometry relative="1" as="geometry">
            <mxPoint x="239.86000000000013" y="414.0000000000001" as="sourcePoint" />
            <mxPoint x="239.86000000000013" y="470" as="targetPoint" />
          </mxGeometry>
        </mxCell>
        <mxCell id="9WTyi6oTgiWyNrq65EOA-11" value="PURGE_DUPS" style="rounded=1;whiteSpace=wrap;html=1;fillColor=#f5f5f5;fontColor=#333333;strokeColor=#666666;" parent="1" vertex="1">
          <mxGeometry x="185" y="354" width="120" height="60" as="geometry" />
        </mxCell>
        <mxCell id="9WTyi6oTgiWyNrq65EOA-12" value="ORGANELLES READS" style="rounded=1;whiteSpace=wrap;html=1;fillColor=#f5f5f5;fontColor=#333333;strokeColor=#666666;" parent="1" vertex="1">
          <mxGeometry x="450" y="270" width="120" height="60" as="geometry" />
        </mxCell>
        <mxCell id="9WTyi6oTgiWyNrq65EOA-56" value="" style="edgeStyle=orthogonalEdgeStyle;rounded=0;orthogonalLoop=1;jettySize=auto;html=1;" parent="1" source="9WTyi6oTgiWyNrq65EOA-13" target="9WTyi6oTgiWyNrq65EOA-19" edge="1">
          <mxGeometry relative="1" as="geometry" />
        </mxCell>
        <mxCell id="9WTyi6oTgiWyNrq65EOA-69" value="" style="edgeStyle=orthogonalEdgeStyle;rounded=0;orthogonalLoop=1;jettySize=auto;html=1;" parent="1" source="9WTyi6oTgiWyNrq65EOA-13" target="9WTyi6oTgiWyNrq65EOA-16" edge="1">
          <mxGeometry relative="1" as="geometry" />
        </mxCell>
        <mxCell id="9WTyi6oTgiWyNrq65EOA-13" value="POLISHING" style="rounded=1;whiteSpace=wrap;html=1;fillColor=#f5f5f5;fontColor=#333333;strokeColor=#666666;" parent="1" vertex="1">
          <mxGeometry x="327" y="465" width="120" height="60" as="geometry" />
        </mxCell>
        <mxCell id="9WTyi6oTgiWyNrq65EOA-68" value="" style="edgeStyle=orthogonalEdgeStyle;rounded=0;orthogonalLoop=1;jettySize=auto;html=1;" parent="1" source="9WTyi6oTgiWyNrq65EOA-14" target="9WTyi6oTgiWyNrq65EOA-15" edge="1">
          <mxGeometry relative="1" as="geometry" />
        </mxCell>
        <mxCell id="9WTyi6oTgiWyNrq65EOA-14" value="HIC_MAPPING" style="rounded=1;whiteSpace=wrap;html=1;fillColor=#f5f5f5;fontColor=#333333;strokeColor=#666666;" parent="1" vertex="1">
          <mxGeometry x="180" y="590" width="120" height="60" as="geometry" />
        </mxCell>
        <mxCell id="9WTyi6oTgiWyNrq65EOA-35" value="" style="edgeStyle=orthogonalEdgeStyle;rounded=0;orthogonalLoop=1;jettySize=auto;html=1;" parent="1" source="9WTyi6oTgiWyNrq65EOA-15" target="9WTyi6oTgiWyNrq65EOA-20" edge="1">
          <mxGeometry relative="1" as="geometry" />
        </mxCell>
        <mxCell id="9WTyi6oTgiWyNrq65EOA-15" value="SCAFFOLDING" style="rounded=1;whiteSpace=wrap;html=1;fillColor=#f5f5f5;fontColor=#333333;strokeColor=#666666;" parent="1" vertex="1">
          <mxGeometry x="180" y="700" width="120" height="60" as="geometry" />
        </mxCell>
        <mxCell id="9WTyi6oTgiWyNrq65EOA-16" value="ORGANELLES ASSEMBLY" style="rounded=1;whiteSpace=wrap;html=1;fillColor=#f5f5f5;fontColor=#333333;strokeColor=#666666;" parent="1" vertex="1">
          <mxGeometry x="327" y="620" width="120" height="60" as="geometry" />
        </mxCell>
        <mxCell id="9WTyi6oTgiWyNrq65EOA-17" value="&lt;font style=&quot;font-size: 10px;&quot;&gt;GENOME_STATISTICS&amp;nbsp;&lt;/font&gt;" style="rounded=1;whiteSpace=wrap;html=1;fillColor=#f5f5f5;fontColor=#333333;strokeColor=#666666;" parent="1" vertex="1">
          <mxGeometry x="40" y="270" width="120" height="60" as="geometry" />
        </mxCell>
        <mxCell id="9WTyi6oTgiWyNrq65EOA-18" value="&lt;font style=&quot;font-size: 10px;&quot;&gt;GENOME_STATISTICS&amp;nbsp;&lt;/font&gt;" style="rounded=1;whiteSpace=wrap;html=1;fillColor=#f5f5f5;fontColor=#333333;strokeColor=#666666;" parent="1" vertex="1">
          <mxGeometry x="40" y="354" width="120" height="60" as="geometry" />
        </mxCell>
        <mxCell id="9WTyi6oTgiWyNrq65EOA-19" value="&lt;font style=&quot;font-size: 10px;&quot;&gt;GENOME_STATISTICS&amp;nbsp;&lt;/font&gt;" style="rounded=1;whiteSpace=wrap;html=1;fillColor=#f5f5f5;fontColor=#333333;strokeColor=#666666;" parent="1" vertex="1">
          <mxGeometry x="470" y="465" width="120" height="60" as="geometry" />
        </mxCell>
        <mxCell id="9WTyi6oTgiWyNrq65EOA-20" value="&lt;font style=&quot;font-size: 10px;&quot;&gt;GENOME_STATISTICS&amp;nbsp;&lt;/font&gt;" style="rounded=1;whiteSpace=wrap;html=1;fillColor=#f5f5f5;fontColor=#333333;strokeColor=#666666;" parent="1" vertex="1">
          <mxGeometry x="40" y="700" width="120" height="60" as="geometry" />
        </mxCell>
        <mxCell id="9WTyi6oTgiWyNrq65EOA-23" style="edgeStyle=orthogonalEdgeStyle;rounded=0;orthogonalLoop=1;jettySize=auto;html=1;entryX=0.968;entryY=-0.013;entryDx=0;entryDy=0;entryPerimeter=0;" parent="1" edge="1">
          <mxGeometry relative="1" as="geometry">
            <mxPoint x="280.34" y="150" as="sourcePoint" />
            <mxPoint x="280" y="179.21999999999997" as="targetPoint" />
          </mxGeometry>
        </mxCell>
        <mxCell id="9WTyi6oTgiWyNrq65EOA-24" style="edgeStyle=orthogonalEdgeStyle;rounded=0;orthogonalLoop=1;jettySize=auto;html=1;entryX=0.968;entryY=-0.013;entryDx=0;entryDy=0;entryPerimeter=0;" parent="1" edge="1">
          <mxGeometry relative="1" as="geometry">
            <mxPoint x="210.33999999999997" y="150.78" as="sourcePoint" />
            <mxPoint x="210" y="179.99999999999997" as="targetPoint" />
          </mxGeometry>
        </mxCell>
        <mxCell id="9WTyi6oTgiWyNrq65EOA-25" style="edgeStyle=orthogonalEdgeStyle;rounded=0;orthogonalLoop=1;jettySize=auto;html=1;entryX=0.968;entryY=-0.013;entryDx=0;entryDy=0;entryPerimeter=0;" parent="1" edge="1">
          <mxGeometry relative="1" as="geometry">
            <mxPoint x="240.16999999999996" y="240.78" as="sourcePoint" />
            <mxPoint x="239.82999999999998" y="270" as="targetPoint" />
          </mxGeometry>
        </mxCell>
        <mxCell id="9WTyi6oTgiWyNrq65EOA-80" value="" style="edgeStyle=orthogonalEdgeStyle;rounded=0;orthogonalLoop=1;jettySize=auto;html=1;" parent="1" source="9WTyi6oTgiWyNrq65EOA-45" target="9WTyi6oTgiWyNrq65EOA-13" edge="1">
          <mxGeometry relative="1" as="geometry" />
        </mxCell>
        <mxCell id="9WTyi6oTgiWyNrq65EOA-45" value="&lt;font style=&quot;font-size: 8px;&quot;&gt;is polishing_on?&lt;/font&gt;" style="rhombus;whiteSpace=wrap;html=1;" parent="1" vertex="1">
          <mxGeometry x="185" y="470" width="110" height="50" as="geometry" />
        </mxCell>
        <mxCell id="9WTyi6oTgiWyNrq65EOA-53" style="edgeStyle=orthogonalEdgeStyle;rounded=0;orthogonalLoop=1;jettySize=auto;html=1;exitX=0.5;exitY=1;exitDx=0;exitDy=0;entryX=0;entryY=0.5;entryDx=0;entryDy=0;" parent="1" source="9WTyi6oTgiWyNrq65EOA-45" target="9WTyi6oTgiWyNrq65EOA-72" edge="1">
          <mxGeometry relative="1" as="geometry" />
        </mxCell>
        <mxCell id="9WTyi6oTgiWyNrq65EOA-64" value="" style="edgeStyle=orthogonalEdgeStyle;rounded=0;orthogonalLoop=1;jettySize=auto;html=1;" parent="1" source="9WTyi6oTgiWyNrq65EOA-57" target="9WTyi6oTgiWyNrq65EOA-60" edge="1">
          <mxGeometry relative="1" as="geometry" />
        </mxCell>
        <mxCell id="9WTyi6oTgiWyNrq65EOA-57" value="RAW_ASSEMBLY HIFI + HIC" style="rounded=1;whiteSpace=wrap;html=1;fillColor=#f5f5f5;fontColor=#333333;strokeColor=#666666;" parent="1" vertex="1">
          <mxGeometry x="322" y="357" width="120" height="54" as="geometry" />
        </mxCell>
        <mxCell id="9WTyi6oTgiWyNrq65EOA-61" value="" style="edgeStyle=orthogonalEdgeStyle;rounded=0;orthogonalLoop=1;jettySize=auto;html=1;" parent="1" source="9WTyi6oTgiWyNrq65EOA-59" target="9WTyi6oTgiWyNrq65EOA-57" edge="1">
          <mxGeometry relative="1" as="geometry" />
        </mxCell>
        <mxCell id="9WTyi6oTgiWyNrq65EOA-59" value="&lt;font style=&quot;font-size: 8px;&quot;&gt;is hifiasm_hic_on?&lt;/font&gt;" style="rhombus;whiteSpace=wrap;html=1;" parent="1" vertex="1">
          <mxGeometry x="327" y="275" width="110" height="50" as="geometry" />
        </mxCell>
        <mxCell id="9WTyi6oTgiWyNrq65EOA-60" value="&lt;font style=&quot;font-size: 10px;&quot;&gt;GENOME_STATISTICS&lt;/font&gt;" style="rounded=1;whiteSpace=wrap;html=1;fillColor=#f5f5f5;fontColor=#333333;strokeColor=#666666;" parent="1" vertex="1">
          <mxGeometry x="470" y="354" width="120" height="60" as="geometry" />
        </mxCell>
        <mxCell id="9WTyi6oTgiWyNrq65EOA-65" value="&lt;font style=&quot;font-size: 8px;&quot;&gt;yes&lt;/font&gt;" style="text;html=1;strokeColor=none;fillColor=none;align=center;verticalAlign=middle;whiteSpace=wrap;rounded=0;" parent="1" vertex="1">
          <mxGeometry x="369" y="314" width="60" height="30" as="geometry" />
        </mxCell>
        <mxCell id="9WTyi6oTgiWyNrq65EOA-70" value="&lt;span style=&quot;font-size: 8px;&quot;&gt;is organelles_on?&lt;/span&gt;" style="rhombus;whiteSpace=wrap;html=1;" parent="1" vertex="1">
          <mxGeometry x="390" y="200" width="110" height="50" as="geometry" />
        </mxCell>
        <mxCell id="9WTyi6oTgiWyNrq65EOA-71" value="&lt;font style=&quot;font-size: 8px;&quot;&gt;yes&lt;/font&gt;" style="text;html=1;strokeColor=none;fillColor=none;align=center;verticalAlign=middle;whiteSpace=wrap;rounded=0;" parent="1" vertex="1">
          <mxGeometry x="466" y="226" width="60" height="30" as="geometry" />
        </mxCell>
        <mxCell id="9WTyi6oTgiWyNrq65EOA-72" value="&lt;span style=&quot;font-size: 8px;&quot;&gt;is organelles_on?&lt;/span&gt;" style="rhombus;whiteSpace=wrap;html=1;" parent="1" vertex="1">
          <mxGeometry x="332" y="540" width="110" height="50" as="geometry" />
        </mxCell>
        <mxCell id="9WTyi6oTgiWyNrq65EOA-74" value="&lt;font style=&quot;font-size: 8px;&quot;&gt;yes&lt;/font&gt;" style="text;html=1;strokeColor=none;fillColor=none;align=center;verticalAlign=middle;whiteSpace=wrap;rounded=0;" parent="1" vertex="1">
          <mxGeometry x="277" y="467" width="60" height="30" as="geometry" />
        </mxCell>
        <mxCell id="9WTyi6oTgiWyNrq65EOA-76" value="&lt;font style=&quot;font-size: 8px;&quot;&gt;yes&lt;/font&gt;" style="text;html=1;strokeColor=none;fillColor=none;align=center;verticalAlign=middle;whiteSpace=wrap;rounded=0;" parent="1" vertex="1">
          <mxGeometry x="377" y="578" width="60" height="30" as="geometry" />
        </mxCell>
        <mxCell id="9WTyi6oTgiWyNrq65EOA-77" value="&lt;font style=&quot;font-size: 8px;&quot;&gt;no&lt;/font&gt;" style="text;html=1;strokeColor=none;fillColor=none;align=center;verticalAlign=middle;whiteSpace=wrap;rounded=0;" parent="1" vertex="1">
          <mxGeometry x="230" y="510" width="60" height="30" as="geometry" />
        </mxCell>
        <mxCell id="9WTyi6oTgiWyNrq65EOA-83" value="" style="endArrow=classic;html=1;rounded=0;exitX=0.25;exitY=1;exitDx=0;exitDy=0;entryX=0.75;entryY=0;entryDx=0;entryDy=0;" parent="1" source="9WTyi6oTgiWyNrq65EOA-13" target="9WTyi6oTgiWyNrq65EOA-14" edge="1">
          <mxGeometry width="50" height="50" relative="1" as="geometry">
            <mxPoint x="240" y="560" as="sourcePoint" />
            <mxPoint x="290" y="510" as="targetPoint" />
          </mxGeometry>
        </mxCell>
      </root>
    </mxGraphModel>
  </diagram>
</mxfile>
